<?xml version="1.0" encoding="UTF-8"?>
<svg version="1.1" xmlns="http://www.w3.org/2000/svg" width="500" height="500">
<path d="M0 0 C165 0 330 0 500 0 C500 165 500 330 500 500 C335 500 170 500 0 500 C0 335 0 170 0 0 Z " fill="#F9F8F7" transform="translate(0,0)"/>
<path d="M0 0 C2.43891255 1.86237335 4.67119693 3.79611789 6.88671875 5.91796875 C7.64984375 6.64113281 8.41296875 7.36429688 9.19921875 8.109375 C21.68658038 20.91313937 28.20821842 38.14647932 28.88671875 55.91796875 C28.99886719 57.52865234 28.99886719 57.52865234 29.11328125 59.171875 C30.17778348 86.03654961 20.86145099 114.88483099 10.85205078 139.53076172 C10.19517168 141.15518354 9.55076039 142.78469054 8.91748047 144.41845703 C1.10212652 164.49014769 -10.22328493 181.49158928 -25.11328125 196.91796875 C-25.92539062 197.79324219 -26.7375 198.66851562 -27.57421875 199.5703125 C-43.11450085 215.89012332 -67.1319565 229.11678714 -90.10726929 229.99411011 C-92.34422798 230.02440673 -94.57927256 230.02598231 -96.81640625 230.015625 C-97.97605644 230.01484703 -97.97605644 230.01484703 -99.15913391 230.01405334 C-102.376634 230.00824711 -105.59190717 229.99902917 -108.80859375 229.92163086 C-118.2693718 229.40337033 -118.2693718 229.40337033 -126.68481445 232.86743164 C-128.45707389 235.14413364 -129.78982432 237.361661 -131.11328125 239.91796875 C-131.9765388 241.04778634 -132.86989037 242.1556927 -133.80078125 243.23046875 C-134.56390625 244.11734375 -135.32703125 245.00421875 -136.11328125 245.91796875 C-136.87640625 246.66046875 -137.63953125 247.40296875 -138.42578125 248.16796875 C-140.34465977 249.75273663 -140.34465977 249.75273663 -140.11328125 251.91796875 C-115.55612628 262.21613051 -87.49167547 258.29341807 -63.234375 248.390625 C-15.20394594 225.72795697 14.50567908 170.58694099 36.82714844 125.06494141 C38.0143448 122.65936427 39.21870914 120.26285153 40.42578125 117.8671875 C47.09345124 104.63026331 53.24610789 91.31115651 58.83837891 77.58154297 C59.88953324 75.00341739 60.95031563 72.42938949 62.01171875 69.85546875 C62.51699097 68.60443359 62.51699097 68.60443359 63.0324707 67.328125 C63.35820068 66.54179687 63.68393066 65.75546875 64.01953125 64.9453125 C64.30715332 64.24140381 64.59477539 63.53749512 64.89111328 62.81225586 C65.98536717 60.73027549 67.07364652 59.41165891 68.88671875 57.91796875 C75.30816023 56.86199837 81.60167689 57.33174887 87.265625 60.640625 C90.77093386 63.40263945 92.50307134 66.76702651 93.88671875 70.91796875 C94.46028615 78.12033651 92.63695137 84.13671371 90.51171875 90.98046875 C90.19460938 92.03041016 89.8775 93.08035156 89.55078125 94.16210938 C88.66858734 97.08253878 87.77835068 100.00041026 86.88671875 102.91796875 C85.40946757 107.81836748 84.28252756 112.6952357 83.38671875 117.73046875 C83.14783036 119.04960521 82.90823594 120.36861398 82.66796875 121.6875 C82.54421875 122.3695752 82.42046875 123.05165039 82.29296875 123.75439453 C81.86039457 126.05816401 81.39034662 128.35251499 80.91796875 130.6484375 C79.73014769 136.54407216 78.80863966 142.47590037 77.88671875 148.41796875 C76.96365946 154.36737433 76.0415589 160.30188202 74.82421875 166.19921875 C72.98411536 175.27261442 72.6106509 184.17701032 72.32421875 193.41796875 C72.28103516 194.71734375 72.23785156 196.01671875 72.19335938 197.35546875 C72.08789365 200.5428772 71.98577427 203.73035573 71.88671875 206.91796875 C102.13507563 188.53257094 118.99144041 129.01098808 126.82421875 96.98046875 C128.56013567 89.36961109 129.33956416 81.97238477 129.38671875 74.16796875 C129.3930835 73.28761963 129.39944824 72.40727051 129.40600586 71.50024414 C129.23502169 62.81639584 127.26434558 52.28690982 120.91796875 45.953125 C119.47873155 44.59243772 118.01733458 43.2546735 116.53125 41.9453125 C114.88671875 39.91796875 114.88671875 39.91796875 114.6484375 37.171875 C114.72707031 36.42808594 114.80570312 35.68429688 114.88671875 34.91796875 C123.07590721 29.40601498 131.33174801 28.4957404 140.88671875 29.91796875 C144.23440484 31.4003752 146.45463691 33.20848765 148.88671875 35.91796875 C149.64984375 36.72234375 150.41296875 37.52671875 151.19921875 38.35546875 C161.07983927 53.35937398 159.64986796 74.59307467 156.19921875 91.48046875 C153.6328436 103.1283994 150.29160798 114.47028285 145.12109375 125.2421875 C143.80666648 128.09149978 142.71847173 130.97278512 141.63671875 133.91796875 C131.10669777 161.56334891 115.37350384 189.60047172 95.88671875 211.91796875 C95.16097656 212.76359375 94.43523437 213.60921875 93.6875 214.48046875 C78.45991474 231.85387672 78.45991474 231.85387672 67.1171875 233.26171875 C61.45118251 233.44774354 56.70515069 233.13025671 51.88671875 229.91796875 C40.46997826 214.93349686 41.3686615 194.56211248 43.57421875 176.66796875 C43.98199495 174.07567717 44.42009658 171.49958305 44.88671875 168.91796875 C45.15258789 167.40831543 45.15258789 167.40831543 45.42382812 165.86816406 C47.61635065 153.47579969 49.9662144 141.16167002 52.88671875 128.91796875 C52.50563965 129.6049585 52.12456055 130.29194824 51.73193359 130.99975586 C44.61068773 143.83480685 37.48228663 156.66590971 30.32421875 169.48046875 C29.76589355 170.48263428 29.20756836 171.4847998 28.63232422 172.51733398 C9.36557276 206.96526637 -13.44472989 240.21462006 -46.44970703 262.77636719 C-47.94108652 263.79980283 -49.41695344 264.84575796 -50.890625 265.89453125 C-57.9088881 270.68594696 -65.27976353 273.45845981 -73.24414062 276.22924805 C-75.05731882 276.89734832 -76.82932827 277.67402982 -78.59765625 278.453125 C-102.83865866 288.55354267 -132.28563864 285.56222652 -156.11328125 275.91796875 C-165.82254188 271.7440339 -175.16206395 265.84479471 -181.11328125 256.91796875 C-181.67578125 253.60546875 -181.67578125 253.60546875 -181.11328125 249.91796875 C-177.4198126 245.01313739 -171.8026783 242.69667158 -166.40625 240.125 C-160.39895647 236.96272794 -155.25819846 230.35272039 -153.11328125 223.91796875 C-154.02078125 223.83546875 -154.92828125 223.75296875 -155.86328125 223.66796875 C-163.15899316 222.61083498 -172.08078613 220.54252212 -177.11328125 214.91796875 C-185.56155162 202.76693 -186.47970665 191.92584047 -183.92578125 177.54296875 C-180.6373755 160.5758281 -173.90026023 144.15852256 -168.11328125 127.91796875 C-168.82339355 128.07338135 -169.53350586 128.22879395 -170.26513672 128.38891602 C-173.08840551 128.91334799 -175.82001107 129.18464656 -178.68359375 129.3828125 C-179.74578125 129.46080078 -180.80796875 129.53878906 -181.90234375 129.61914062 C-184.10270741 129.77502119 -186.30322718 129.92871563 -188.50390625 130.08007812 C-191.71213753 130.31779647 -194.91101471 130.6109021 -198.11328125 130.91796875 C-199.13945557 130.9862085 -200.16562988 131.05444824 -201.22290039 131.12475586 C-206.48369607 131.60041394 -206.48369607 131.60041394 -210.59179688 134.58325195 C-211.76153077 136.88703749 -212.54787857 139.13402985 -213.30078125 141.60546875 C-213.60846436 142.48090332 -213.91614746 143.35633789 -214.2331543 144.25830078 C-214.88874897 146.14009111 -215.52361747 148.02920557 -216.13964844 149.92431641 C-217.48371748 154.05695797 -218.9280185 158.15261387 -220.36645508 162.25317383 C-221.0589463 164.24031561 -221.74151365 166.2309509 -222.4128418 168.2253418 C-224.02347549 172.99273374 -225.73832634 177.46406779 -228.11328125 181.91796875 C-228.52578125 182.92859375 -228.93828125 183.93921875 -229.36328125 184.98046875 C-236.30207761 201.23091412 -246.44253205 216.58503624 -263.11328125 223.91796875 C-272.36054364 227.09289917 -285.04834106 227.84548256 -294.2578125 224.015625 C-301.00268323 220.02550148 -304.70178111 214.25618961 -307.11328125 206.91796875 C-310.87992541 191.92723059 -307.65109428 174.55933604 -299.80078125 161.4296875 C-290.54023286 147.64604719 -279.20536505 137.46429308 -265.11328125 128.91796875 C-264.30632812 128.42554688 -263.499375 127.933125 -262.66796875 127.42578125 C-258.55015033 125.16762276 -254.65564329 123.77897122 -250.078125 122.76953125 C-240.31229077 120.75288508 -240.31229077 120.75288508 -232.60449219 114.98388672 C-230.15882188 110.1403546 -229.00423694 104.94034128 -227.81005859 99.67480469 C-226.65355163 95.09902451 -224.86720275 90.79172869 -223.11328125 86.41796875 C-219.77107783 77.78743816 -216.67285141 69.08481555 -213.65625 60.3359375 C-211.27119541 53.4530743 -208.64584419 46.67447078 -205.92578125 39.91796875 C-205.65314453 39.23863281 -205.38050781 38.55929688 -205.09960938 37.859375 C-204.43830543 36.21191605 -203.77591159 34.56489465 -203.11328125 32.91796875 C-217.87107292 38.37463122 -230.88457843 44.56874318 -242.11328125 55.91796875 C-242.78230469 56.55347656 -243.45132813 57.18898438 -244.140625 57.84375 C-250.02340178 63.85089838 -253.08593825 71.63950295 -253.61328125 80.04296875 C-252.81093597 86.26114467 -250.58457607 91.71102651 -247.11328125 96.91796875 C-247.43741815 100.24037199 -247.72104428 101.52573178 -250.11328125 103.91796875 C-258.48921936 105.27965245 -264.78660213 102.53410031 -271.80078125 98.29296875 C-277.70383069 92.23037744 -280.5032866 86.9457023 -280.67578125 78.35546875 C-280.39909712 72.35262614 -279.74069237 67.32510467 -277.11328125 61.91796875 C-276.695625 61.02078125 -276.27796875 60.12359375 -275.84765625 59.19921875 C-267.55476437 43.28356768 -253.62722199 33.1499972 -238.11328125 24.91796875 C-237.47229492 24.5715332 -236.83130859 24.22509766 -236.17089844 23.86816406 C-219.8489589 15.26267822 -197.570179 9.00819316 -179.11328125 11.91796875 C-174.92691032 13.54832434 -172.24726996 15.78398004 -169.11328125 18.91796875 C-169.23120081 24.46018811 -171.24858531 28.5864879 -173.6015625 33.53515625 C-175.40045239 37.5605791 -176.92344659 41.64957638 -178.42578125 45.79296875 C-180.95217938 52.75325471 -183.52906979 59.68994926 -186.17578125 66.60546875 C-188.54667985 72.80763076 -190.91016357 79.01210663 -193.23828125 85.23046875 C-193.47450195 85.86122314 -193.71072266 86.49197754 -193.95410156 87.1418457 C-194.949262 89.80119638 -195.94290723 92.46110722 -196.93505859 95.12158203 C-197.49453979 96.62181811 -198.05442872 98.1219022 -198.61474609 99.62182617 C-199.14338441 101.0369919 -199.67109916 102.45250309 -200.19775391 103.8684082 C-202.00062642 108.69265909 -202.00062642 108.69265909 -203.11328125 110.91796875 C-202.12328125 110.78519531 -201.13328125 110.65242188 -200.11328125 110.515625 C-198.77995033 110.33722157 -197.44661686 110.15883718 -196.11328125 109.98046875 C-194.16421875 109.71943359 -194.16421875 109.71943359 -192.17578125 109.453125 C-191.50353516 109.36554932 -190.83128906 109.27797363 -190.13867188 109.18774414 C-188.18001761 108.92685781 -186.2246593 108.64158505 -184.26953125 108.35546875 C-179.38811541 107.74947106 -174.52477896 107.80906652 -169.61328125 107.85546875 C-168.2365625 107.86223633 -168.2365625 107.86223633 -166.83203125 107.86914062 C-164.59237734 107.88080549 -162.3528658 107.89717261 -160.11328125 107.91796875 C-159.94675049 107.20543945 -159.78021973 106.49291016 -159.60864258 105.75878906 C-157.71961664 97.91802885 -155.38630285 90.30467131 -152.80078125 82.66796875 C-152.40342773 81.4864624 -152.00607422 80.30495605 -151.59667969 79.08764648 C-148.61929514 70.28869163 -145.51995078 61.56025723 -142.11328125 52.91796875 C-141.70722656 51.87125 -141.30117187 50.82453125 -140.8828125 49.74609375 C-130.14396178 22.91634374 -112.64438522 2.78801096 -86.15917969 -9.22460938 C-57.53964133 -21.21885982 -25.28388776 -16.90879821 0 0 Z " fill="#040404" transform="translate(326.11328125,116.08203125)"/>
<path d="M0 0 C0.89009766 -0.01611328 1.78019531 -0.03222656 2.69726562 -0.04882812 C15.49091093 -0.05817337 27.51986721 5.68930452 36.79296875 14.43359375 C48.96567251 27.35869421 51.51934726 43.22821595 51.41357422 60.37963867 C50.62586519 82.5521384 42.62328118 103.84628452 34.5625 124.3125 C34.25497803 125.11679443 33.94745605 125.92108887 33.63061523 126.74975586 C21.55986274 157.85574523 1.53009826 186.67874694 -29.5625 200.6875 C-41.82232618 205.58598771 -52.39160921 206.72984485 -65.4375 206.3125 C-63.43743588 195.52369258 -58.92091104 185.54421801 -54.7277832 175.46801758 C-52.2650351 169.49479344 -50.0901788 163.59638216 -48.38671875 157.359375 C-47.5495537 154.67217856 -46.58511872 152.13278138 -45.52734375 149.52734375 C-43.60019262 144.77985306 -41.90876106 139.99236835 -40.3125 135.125 C-39.87526611 133.80363037 -39.87526611 133.80363037 -39.42919922 132.45556641 C-36.98382996 125.03857821 -34.59259838 117.60411286 -32.20065308 110.16976929 C-30.91755603 106.18413644 -29.63096403 102.19963035 -28.34339905 98.21543884 C-27.30030617 94.98744869 -26.2599155 91.75866505 -25.22412109 88.52832031 C-16.76616755 62.19992421 -16.76616755 62.19992421 -10.4375 50.3125 C-9.95925781 49.39984375 -9.48101562 48.4871875 -8.98828125 47.546875 C-5.79316488 41.83943425 -1.88262951 37.2878825 2.70703125 32.63671875 C4.71728489 30.11861156 5.22059635 28.47931245 5.5625 25.3125 C0.85893824 22.17679216 -3.93288214 22.76414726 -9.4375 23.3125 C-21.36408405 26.63595728 -31.19201499 38.14479803 -37.2421875 48.359375 C-44.88577103 62.83122649 -49.33159477 78.64789814 -53.81469727 94.31567383 C-58.14417899 109.38506733 -63.359386 124.15441385 -68.53149414 138.95092773 C-70.50363245 144.59886909 -72.43608923 150.25708681 -74.3125 155.9375 C-76.80037879 163.44771269 -79.33373724 170.94224283 -81.89654541 178.42718506 C-82.54563376 180.32566885 -83.19059707 182.22556141 -83.83544922 184.12548828 C-86.08274456 190.67188005 -88.46238601 197.05980554 -91.4375 203.3125 C-97.76806841 202.75718698 -103.74269486 202.00730514 -108.4375 197.3125 C-108.66896129 194.53797052 -108.76996405 191.90028826 -108.75 189.125 C-108.74436035 188.31200439 -108.7387207 187.49900879 -108.73291016 186.66137695 C-108.25708611 162.5663066 -97.95854647 138.39087427 -90.18359375 115.83984375 C-89.77590004 114.65696022 -89.77590004 114.65696022 -89.35997009 113.45018005 C-88.25519409 110.24656821 -87.15017828 107.04305689 -86.03930664 103.84155273 C-82.8507807 94.64549679 -79.77860527 85.44885071 -77.15122986 76.07444763 C-75.47181637 70.14951685 -73.26579754 64.55420781 -70.90234375 58.87109375 C-69.50781271 55.48331301 -68.24884656 52.06854083 -67 48.625 C-61.0812054 33.38131201 -51.15817579 20.3549591 -37.4375 11.3125 C-36.550625 10.631875 -35.66375 9.95125 -34.75 9.25 C-23.9417318 2.92818275 -12.4094162 -0.04473474 0 0 Z " fill="#F8F7F6" transform="translate(277.4375,120.6875)"/>
<path d="M0 0 C-6.39501981 19.56876061 -6.39501981 19.56876061 -10 28 C-10.45375 29.08152344 -10.9075 30.16304688 -11.375 31.27734375 C-22.78137449 57.82354014 -22.78137449 57.82354014 -31 63 C-34.75127126 63 -36.46326642 62.43786161 -39.375 60.0625 C-43.04027399 53.15486825 -41.02677895 45.24640401 -39.03515625 38.01171875 C-33.34269961 21.44989206 -20.52333353 8.1522591 -5.34765625 -0.1015625 C-3 -1 -3 -1 0 0 Z " fill="#F3F3F2" transform="translate(84,259)"/>
<path d="M0 0 C1.41687119 4.25061356 0.19320039 6.71851625 -1 11 C-1.66 10.34 -2.32 9.68 -3 9 C-3.99 9.495 -3.99 9.495 -5 10 C-3.84414715 6.08788267 -2.64465038 3.1254959 0 0 Z " fill="#CBCBCB" transform="translate(379,244)"/>
<path d="M0 0 C0 3.77910478 -0.99703962 4.46106101 -3.5 7.1875 C-4.1496875 7.90292969 -4.799375 8.61835938 -5.46875 9.35546875 C-5.9740625 9.89816406 -6.479375 10.44085938 -7 11 C-7.66 10.67 -8.32 10.34 -9 10 C-6.03 6.7 -3.06 3.4 0 0 Z " fill="#DADAD9" transform="translate(316,345)"/>
<path d="M0 0 C0.99 0.33 1.98 0.66 3 1 C-0.465 3.97 -0.465 3.97 -4 7 C-2.92598892 4.08482708 -2.22189824 2.22189824 0 0 Z " fill="#2C2C2C" transform="translate(395,174)"/>
</svg>
